<svg id="visual" viewBox="0 0 960 300" width="960" height="300" xmlns="http://www.w3.org/2000/svg" xmlns:xlink="http://www.w3.org/1999/xlink" version="1.1"><path d="M0 85L26.7 87.8C53.3 90.7 106.7 96.3 160 101.2C213.3 106 266.7 110 320 107C373.3 104 426.7 94 480 86.5C533.3 79 586.7 74 640 76.7C693.3 79.3 746.7 89.7 800 93.2C853.3 96.7 906.7 93.3 933.3 91.7L960 90L960 0L933.3 0C906.7 0 853.3 0 800 0C746.7 0 693.3 0 640 0C586.7 0 533.3 0 480 0C426.7 0 373.3 0 320 0C266.7 0 213.3 0 160 0C106.7 0 53.3 0 26.7 0L0 0Z" fill="#663926" stroke-linecap="round" stroke-linejoin="miter"></path></svg>