<svg id="visual" viewBox="0 0 960 300" width="960" height="300" xmlns="http://www.w3.org/2000/svg" xmlns:xlink="http://www.w3.org/1999/xlink" version="1.1"><path d="M0 204L26.7 202.8C53.3 201.7 106.7 199.3 160 200.2C213.3 201 266.7 205 320 211.2C373.3 217.3 426.7 225.7 480 225C533.3 224.3 586.7 214.7 640 209.5C693.3 204.3 746.7 203.7 800 206C853.3 208.3 906.7 213.7 933.3 216.3L960 219L960 301L933.3 301C906.7 301 853.3 301 800 301C746.7 301 693.3 301 640 301C586.7 301 533.3 301 480 301C426.7 301 373.3 301 320 301C266.7 301 213.3 301 160 301C106.7 301 53.3 301 26.7 301L0 301Z" fill="#fc6e51" stroke-linecap="round" stroke-linejoin="miter"></path></svg>